<?xml version="1.0" encoding="utf-8"?><svg viewBox="0 0 97 85" xmlns="http://www.w3.org/2000/svg" xmlns:xlink="http://www.w3.org/1999/xlink"><style>:root>svg{display:none}:root>svg:target{display:block}</style><svg viewBox="0 0 32 32" id="coin_icon" xmlns="http://www.w3.org/2000/svg"><path d="M14.71 21.704a.626.626 0 10-.885-.884.626.626 0 00.885.884zM11.75 6.873c0 3.79 3.084 6.873 6.875 6.873S25.5 10.663 25.5 6.873 22.416 0 18.625 0c-3.79 0-6.875 3.083-6.875 6.873zm12.5 0a5.63 5.63 0 01-5.625 5.624A5.63 5.63 0 0113 6.873a5.63 5.63 0 015.625-5.623 5.63 5.63 0 015.625 5.623z" fill-opacity=".6"/><path d="M7.2 31.815a.625.625 0 00.881.005l3.03-2.984a1.888 1.888 0 00.445-1.94l.652-.628a1.865 1.865 0 011.302-.525h8.309a5.597 5.597 0 003.923-1.594c.044-.042-.33.398 5.669-6.77a2.502 2.502 0 00-.297-3.522 2.507 2.507 0 00-3.508.279l-3.688 3.79a2.512 2.512 0 00-1.943-.93h-6.97a8.066 8.066 0 00-3.13-.625c-3.01 0-5.637 1.39-7.048 3.995a1.867 1.867 0 00-1.671.518l-2.974 2.98a.625.625 0 000 .882l7.017 7.07zm4.675-14.195c.958 0 1.883.193 2.752.573a.633.633 0 00.25.052h7.098c.678 0 1.25.553 1.25 1.25 0 .689-.56 1.25-1.25 1.25h-5.1a.625.625 0 100 1.249h5.1a2.502 2.502 0 002.478-2.826c3.568-3.666 4.071-4.181 4.093-4.207a1.254 1.254 0 011.762-.149c.526.445.593 1.235.146 1.764l-5.606 6.7a4.353 4.353 0 01-3.03 1.217H13.51c-.814 0-1.585.312-2.17.876l-.531.513-4.897-4.895c1.145-2.146 3.292-3.367 5.963-3.367zM4.04 21.767a.624.624 0 01.774-.088c.108.066-.202-.217 5.414 5.39.25.25.236.647.003.88l-2.583 2.544-6.141-6.186 2.533-2.54zM17.875 3.124v.732a1.877 1.877 0 00-1.25 1.768c0 1.033.841 1.874 1.875 1.874a.626.626 0 010 1.25c-.266 0-.555-.168-.811-.473a.625.625 0 00-.957.804c.334.397.727.674 1.143.814v.73a.625.625 0 001.25 0V9.89a1.878 1.878 0 001.25-1.767A1.877 1.877 0 0018.5 6.248a.626.626 0 010-1.25c.222 0 .456.114.677.327a.625.625 0 00.869-.898 2.414 2.414 0 00-.92-.575v-.728a.625.625 0 10-1.25 0z" fill-opacity=".6"/></svg><svg viewBox="0 0 62 85" id="crown_icon" xmlns="http://www.w3.org/2000/svg"><path d="M6.583 31.98a17.371 17.371 0 013.746 4.437 1.767 1.767 0 001.52.866h2.987v7.069a1.767 1.767 0 001.767 1.767h5.302v3.535h-1.767v3.534h1.767v3.535h-1.767v3.535h1.767v3.534h-1.767v3.535h1.767v3.535h-1.767v3.534h1.767v3.535a1.767 1.767 0 00.707 1.414l7.07 5.302a1.767 1.767 0 002.12 0l7.07-5.302a1.767 1.767 0 00.706-1.414v-3.535h1.768v-3.534h-1.768v-3.535h1.768v-3.535h-1.768v-3.534h1.768v-3.535h-1.768v-3.535h1.768v-3.534h-1.768v-3.535h5.302a1.767 1.767 0 001.768-1.767v-7.07h2.986a1.767 1.767 0 001.52-.865 17.37 17.37 0 013.747-4.436A18.044 18.044 0 1030.74 5.224 18.044 18.044 0 106.584 31.98zm29.46 45.05l-5.301 3.976-5.302-3.977v-2.633h10.604v2.633zm0-6.168H25.44v-3.535h10.604v3.535zm0-7.07H25.44v-3.534h10.604v3.534zm0-7.069H25.44v-3.535h10.604v3.535zm0-7.07H25.44V46.12h10.604v3.535zm7.07-7.068H18.37v-5.302h24.742v5.302zM3.932 15.65A14.51 14.51 0 0129.38 9.006a1.767 1.767 0 002.722 0 14.51 14.51 0 1120.536 20.288 20.397 20.397 0 00-3.977 4.454h-35.84a20.395 20.395 0 00-3.977-4.471A14.404 14.404 0 013.932 15.65z" fill-opacity=".75"/><path d="M43.502 10.773l-2.51-2.545a14.403 14.403 0 01-10.25 4.312 14.404 14.404 0 01-10.25-4.24l-2.51 2.474a17.921 17.921 0 0012.76 5.302 17.92 17.92 0 0012.76-5.302z" fill-opacity=".75"/></svg><svg viewBox="0 0 50 50" id="play_btn" xmlns="http://www.w3.org/2000/svg"><path d="M25 0c13.779 0 25 11.216 25 25.015C50 38.785 38.779 50 25 50S0 38.784 0 25.015C0 11.215 11.221 0 25 0zm-2.848 15.075c-.53 0-1.037.12-1.52.362a3.128 3.128 0 00-1.351 1.495c-.169.434-.434 1.737-.434 1.76-.266 1.424-.41 3.74-.41 6.296 0 2.438.144 4.655.361 6.102.024.024.29 1.64.58 2.195a3.038 3.038 0 002.678 1.64h.096c.724-.024 2.245-.651 2.245-.675 2.558-1.061 7.601-4.366 9.628-6.56l.145-.145a9.96 9.96 0 00.676-.772 2.908 2.908 0 00.579-1.758c0-.702-.217-1.354-.628-1.884-.096-.097-.458-.507-.796-.845-1.979-2.122-7.143-5.595-9.846-6.657-.41-.166-1.448-.53-2.003-.554z"/></svg><svg viewBox="0 0 40 40" id="stethoscope_icon" xmlns="http://www.w3.org/2000/svg"><path d="M39.952 22.298a4.667 4.667 0 00-3.953-3.952v-1.212c0-3.344-2.541-6.067-5.666-6.067-3.035 0-5.575 2.64-5.667 5.886h.039l-.039.006v13.138c0 4.2-3.14 7.61-7 7.61s-7-3.415-7-7.61V28.96c.967 0 2-.7 2-2.666v-1.677C16.947 23.522 20 19.848 20 15.683v-1.39h-1.334l-.028-8.677a3.337 3.337 0 00-2.742-3.263 1.99 1.99 0 10-.046 1.36 2 2 0 011.453 1.907l.03 8.673H16v1.409a5.301 5.301 0 01-3.838 4.974 6.062 6.062 0 01-3.666 0 5.298 5.298 0 01-3.83-4.974v-1.41h-2V5.627a2 2 0 011.48-1.922 2.01 2.01 0 10-.04-1.354 3.333 3.333 0 00-2.773 3.276v8.667H0v1.386c0 4.17 3.057 7.846 7.333 8.937v1.677c0 1.966 1.034 2.666 2 2.666v1.138c0 4.933 3.738 8.944 8.333 8.944 4.596 0 8.334-4.015 8.334-8.944V16.991c.066-2.53 2.012-4.588 4.333-4.588 2.39 0 4.333 2.122 4.333 4.733v1.21a4.667 4.667 0 105.286 3.952zM14 3.626a.667.667 0 110-1.333.667.667 0 010 1.333zM6 2.293a.667.667 0 110 1.333.667.667 0 010-1.333zM1.333 15.679v-.053h2v.076a6.624 6.624 0 004.759 6.242 7.418 7.418 0 004.478 0 6.625 6.625 0 004.763-6.242v-.076h1.333v.053c0 3.709-2.858 6.972-6.8 7.762a9.512 9.512 0 01-3.733-.002c-3.941-.788-6.8-4.051-6.8-7.76zm8 11.947c-.6 0-.666-.934-.666-1.334v-1.414c.053.006.108.01.162.014.066.008.133.013.2.02.315.027.633.046.954.047h.033c.32 0 .637-.02.95-.048.067-.006.138-.011.207-.019.052-.005.107-.008.16-.014v1.415c0 .4-.067 1.333-.667 1.333H9.333zm26-1.334a3.333 3.333 0 110-6.666 3.333 3.333 0 010 6.666z" fill-opacity=".6"/></svg><svg viewBox="0 0 76 85" id="teeth-shield_icon" xmlns="http://www.w3.org/2000/svg"><path d="M46.06 16.52c-1.542.215-3.133.63-4.863 1.272-2.474.918-4.684.918-7.161 0-1.712-.634-3.343-1.061-4.855-1.271-5.297-.751-9.269 1.883-10.86 6.955-1.118 3.584-1.06 6.852.189 10.002a86.3 86.3 0 00.836 2c.534 1.25 1.09 2.538 1.46 3.826a30.989 30.989 0 011.131 6.016c.143 1.769.203 3.541.257 5.318.074 2.174.15 4.428.377 6.645.352 3.481 1.235 7.81 4.969 10.415 1.822 1.263 3.784 1.196 5.375-.196 2.602-2.274 2.73-5.492 2.548-8.051l-.085-1.16c-.15-2.001-.303-4.07-.221-6.005.057-1.374.377-2.87.936-4.336.263-.708 1.071-.815 1.53-.815.453 0 1.25.107 1.52.819.549 1.47.873 2.965.93 4.328.081 1.944-.072 4.019-.225 6.065l-.082 1.107c-.181 2.549-.06 5.767 2.556 8.052.854.74 1.698 1.071 2.734 1.071.9 0 1.787-.296 2.644-.886 3.716-2.599 4.603-6.927 4.958-10.412.225-2.189.303-4.41.378-6.666.053-1.77.11-3.535.252-5.293.164-1.958.545-3.98 1.136-6.019.37-1.281.922-2.563 1.46-3.805.284-.67.572-1.346.843-2.025 1.246-3.147 1.303-6.414.181-9.995-1.594-5.072-5.656-7.703-10.849-6.955zm7.36 15.634a76.45 76.45 0 01-.811 1.932c-.552 1.278-1.178 2.734-1.61 4.226a34.014 34.014 0 00-1.26 6.72c-.149 1.822-.21 3.648-.27 5.567-.07 2.075-.142 4.214-.356 6.321-.313 3.04-.946 6.1-3.445 7.845-.42.295-.491.512-1.011.057-1.143-.997-1.534-2.478-1.342-5.1l.086-1.15c.153-2.108.316-4.282.224-6.44-.075-1.73-.477-3.609-1.157-5.424-.726-1.93-2.584-3.129-4.848-3.129-2.285 0-4.15 1.203-4.862 3.126-.683 1.808-1.086 3.684-1.16 5.428-.09 2.146.074 4.317.231 6.46l.082 1.114c.188 2.634-.203 4.111-1.342 5.111-.523.463-.59.235-.997-.046-2.516-1.755-3.15-4.812-3.46-7.852-.216-2.136-.291-4.303-.359-6.403-.064-1.834-.12-3.66-.27-5.485-.175-2.172-.598-4.432-1.26-6.72-.431-1.503-1.058-2.958-1.606-4.24a95.534 95.534 0 01-.8-1.915c-.933-2.352-.965-4.844-.1-7.62 1.093-3.464 3.492-4.976 6.969-4.492 1.26.178 2.645.54 4.111 1.085 3.275 1.218 6.36 1.218 9.635 0 1.488-.551 2.834-.907 4.119-1.085 4.228-.584 6.228 2.174 6.958 4.495.872 2.77.84 5.265-.089 7.614z" fill-opacity=".75"/><path d="M75.1 23.946c.022-2.58.043-5.161.043-7.738v-3.382a3.49 3.49 0 00-1.135-2.573c-.644-.587-1.456-.915-2.67-.9C57.83 10.594 48.01 7.928 39.855.834 38.592-.28 36.535-.275 35.278.83c-6.82 5.94-15.191 8.831-25.6 8.831-1.854 0-3.818-.089-6.121-.274a3.477 3.477 0 00-3.5 3.481v3.47c0 2.641-.013 5.286-.028 7.93-.035 6.272-.074 13.384.118 20.303.085 2.87.562 7.12 2.356 11.095 5.983 13.227 16.943 22.705 33.498 28.966a5.68 5.68 0 002.064.367c1.015 0 2.1-.231 3.043-.659 12.241-5.4 20.844-12.009 27.066-20.8 4.997-7.059 7.3-14.235 7.033-21.94-.203-5.966-.153-12.174-.106-17.655zM65.273 61.48c-5.834 8.243-13.97 14.472-25.606 19.605-.78.349-1.794.455-2.392.224C21.63 75.393 11.323 66.527 5.753 54.2c-1.556-3.439-1.972-7.194-2.043-9.732-.196-6.862-.157-13.938-.121-20.181.014-2.649.028-5.3.028-7.949l-.078-3.395c14.302 1.245 25.3-1.766 33.978-9.422 7.489 6.514 16.59 9.682 27.83 9.682 2.008 0 4.137-.1 6.237-.37v3.38c0 2.57-.022 5.137-.043 7.71-.046 5.514-.096 11.76.11 17.804.243 6.892-1.843 13.355-6.378 19.752z" fill-opacity=".75"/></svg><svg viewBox="0 0 97 85" id="teeth-zoom_icon" xmlns="http://www.w3.org/2000/svg"><path d="M48.481 52.356a17.136 17.136 0 01-5.813-3.832 17.375 17.375 0 01-2.986-3.998 2.155 2.155 0 00-3.792 2.051 21.672 21.672 0 003.728 4.995 21.384 21.384 0 007.27 4.79 2.155 2.155 0 002.798-1.207 2.15 2.15 0 00-1.205-2.799z" fill-opacity=".75"/><path d="M83.471 56.023a6.078 6.078 0 00-6.853-1.237l-4.956-4.958c5.891-7.323 6.296-17.627 1.205-25.354.318-5.879-1.348-11.23-4.89-15.509C62.531 2.392 52.695-1.087 43.521.303a26.378 26.378 0 00-7.073 2.105A26.323 26.323 0 0029.38.304c-9.186-1.39-19.02 2.089-24.465 8.662-9.733 11.775-3.884 29.93 7.685 39.496.627.52.938 1.288.83 2.051-1.654 11.834-1.166 19.737 6.09 30.084.81 1.158 1.866 2.228 3.253 3.313.682.585 1.383.927 2.213 1.06.157.02.322.03.494.03 1.561 0 3.645-.84 4.178-2.676.173-.586.194-1.228.153-1.879a2.13 2.13 0 00-.016-.76 71.86 71.86 0 00-.198-.9l-.014-.068c-.022-.122-.043-.24-.067-.353-.008-.035-.025-.067-.035-.102-.112-.49-.222-.962-.328-1.414-.78-3.333-1.295-5.535-.787-9.26.572-4.192 3.801-6.287 6.393-6.807 2.61-.522 6.134.174 8.205 3.694 2.467 4.196 1.28 9.809.23 14.761l-.094.448a2.11 2.11 0 00-.018.738c-.04.64-.02 1.293.154 1.865.513 1.854 2.588 2.704 4.22 2.704.187 0 .368-.01.54-.033.75-.124 1.443-.468 2.05-.99 1.45-1.135 2.507-2.202 3.336-3.37 5.387-7.68 7.306-14.186 6.78-23.404a21.536 21.536 0 008.475-4.296l4.937 4.939c-1.016 2.256-.618 4.999 1.233 6.848l11.698 11.698a6.084 6.084 0 004.333 1.795 6.085 6.085 0 004.331-1.795 6.133 6.133 0 000-8.663L83.471 56.023zm-16.414-7.5a17.26 17.26 0 01-13.239 5.02 2.156 2.156 0 00-.258 4.304c.433.025.866.038 1.297.038.34 0 .678-.034 1.017-.05.394 8.01-1.28 13.528-6.014 20.28-.562.79-1.327 1.558-2.473 2.464a9.68 9.68 0 01.107-.804l.012-.057.068-.35c1.113-5.299 2.27-11.7-.893-17.079-2.651-4.507-7.658-6.756-12.77-5.735-5.238 1.052-9.092 5.153-9.815 10.45-.615 4.516.037 7.301.863 10.827.133.57.275 1.182.416 1.818l.015.08.012.056.006.026c.052.326.082.575.1.765-1.113-.874-1.893-1.652-2.453-2.453-6.513-9.285-6.915-15.838-5.352-27.014.315-2.252-.561-4.482-2.35-5.967C6.7 37.985-.587 22.387 8.237 11.712c4.445-5.365 12.874-8.303 20.506-7.146A22.237 22.237 0 0135.48 6.72c.068.035.141.05.211.077.08.057.158.117.247.164a24.068 24.068 0 017.325 5.997 2.152 2.152 0 001.671.794 2.157 2.157 0 001.67-3.518 28.296 28.296 0 00-5.344-5.018c.958-.28 1.924-.509 2.9-.653 7.62-1.156 16.055 1.783 20.499 7.147 1.856 2.243 3.078 4.87 3.626 7.76a21.385 21.385 0 00-13.42-4.7 21.418 21.418 0 00-15.243 6.313 21.593 21.593 0 00-5.985 19.007 2.156 2.156 0 004.245-.75 17.278 17.278 0 014.787-15.21 17.132 17.132 0 0112.194-5.05c4.605 0 8.937 1.794 12.194 5.05 6.723 6.728 6.723 17.669 0 24.393zm25.065 24.813c-.687.688-1.881.686-2.567 0L77.857 61.638a1.819 1.819 0 010-2.567 1.803 1.803 0 011.282-.531c.486 0 .941.188 1.284.53l11.698 11.7c.708.707.708 1.858.001 2.566z" fill-opacity=".75"/><path d="M54.31 29.058c1.154-2.164 1.048-4.285.881-5.356a2.165 2.165 0 00-2.46-1.8 2.156 2.156 0 00-1.8 2.46c.084.541.141 1.607-.426 2.668-.97 1.823-3.055 2.206-3.29 2.244a2.155 2.155 0 10.684 4.256c.736-.117 4.503-.888 6.412-4.472zm8.217 10.64c-.703-.25-4.378-1.38-7.773.848-1.514.994-2.702 2.511-3.342 4.272a2.156 2.156 0 104.052 1.474c.188-.517.652-1.483 1.656-2.14 1.727-1.135 3.74-.47 3.963-.39a2.158 2.158 0 002.753-1.31 2.158 2.158 0 00-1.31-2.754zm1.61-3.63a2.332 2.332 0 100-4.665 2.332 2.332 0 000 4.665zM44.249 47.17a2.332 2.332 0 100-4.664 2.332 2.332 0 000 4.664zm8.891-9.768a1.43 1.43 0 100-2.86 1.43 1.43 0 000 2.86zm7.53-11.344a1.728 1.728 0 100-3.456 1.728 1.728 0 000 3.456zm-.296 24.5a1.43 1.43 0 100-2.86 1.43 1.43 0 000 2.86zm-17.555-19.98a1.43 1.43 0 100-2.86 1.43 1.43 0 000 2.86zM23.14 8.401h-.064c-4.091 0-7.407 1.182-9.856 3.512a2.157 2.157 0 002.972 3.123c1.62-1.542 3.936-2.323 6.885-2.323h.056a2.156 2.156 0 00.006-4.312zm-10.786 8.061A2.16 2.16 0 009.65 17.87a21.294 21.294 0 00-.795 3.705 2.154 2.154 0 104.275.545 16.99 16.99 0 01.63-2.953 2.154 2.154 0 00-1.405-2.704z" fill-opacity=".75"/></svg><svg viewBox="0 0 31 32" id="teeth_icon" xmlns="http://www.w3.org/2000/svg"><path d="M26.89 5.347h-1.76v-1.76c0-.37-.3-.67-.67-.67h-2.972c-.37 0-.67.3-.67.67v1.76h-1.76c-.37 0-.67.3-.67.67V8.99c0 .37.3.67.67.67h1.76v1.753c0 .37.3.67.67.67h2.973c.37 0 .67-.3.67-.67V9.659h1.759c.37 0 .67-.3.67-.67V6.018c0-.37-.3-.67-.67-.67zm-.67 2.973h-1.76a.67.67 0 00-.669.67v1.753h-1.634V8.99c0-.37-.3-.67-.67-.67h-1.759V6.686h1.76c.37 0 .67-.3.67-.67v-1.76h1.633v1.76c0 .37.3.67.67.67h1.76V8.32z" fill-opacity=".6"/><path d="M30.474 7.5c0-4.136-3.364-7.5-7.5-7.5a7.485 7.485 0 00-5.938 2.936 22.1 22.1 0 00-3.687 1.089c-1.111-.448-6.42-2.418-9.965-.78-1.397.645-2.346 1.76-2.825 3.313-1.454 4.725.245 8.127 1.485 10.61.475.95.884 1.77.946 2.369.035.337.062.823.097 1.409.242 4.14.663 8.701 2.61 10.393a2.56 2.56 0 001.946.651c2.193-.18 2.223-2.48 2.249-4.51.041-3.192.292-5.13 3.394-5.13l.11.002c3.116 0 3.366 1.938 3.408 5.128.027 2.03.057 4.33 2.25 4.509.726.06 1.378-.158 1.943-.65 1.948-1.69 2.368-6.256 2.608-10.402.035-.583.062-1.067.096-1.401.063-.6.473-1.42.947-2.37.403-.808.852-1.72 1.23-2.752 2.697-1.137 4.596-3.808 4.596-6.914zm-7.025 9.068c-.532 1.066-.992 1.987-1.08 2.83-.037.35-.066.855-.101 1.462-.15 2.599-.465 8.006-2.149 9.468-.29.253-.592.355-.955.326-.887-.072-.992-1.028-1.02-3.192-.034-2.567-.085-6.45-4.734-6.45l-.11-.002c-4.664 0-4.714 3.883-4.748 6.452-.028 2.165-.133 3.121-1.019 3.194-.366.029-.666-.075-.957-.328-1.684-1.464-2-6.865-2.151-9.46a38.118 38.118 0 00-.102-1.467c-.086-.841-.547-1.763-1.08-2.83-1.14-2.282-2.699-5.406-1.403-9.619.366-1.19 1.055-2.004 2.104-2.49 2.147-.994 5.25-.361 7.22.228-1.525.4-3.662.854-5.509.854a.67.67 0 000 1.34c3.509 0 7.78-1.459 8.005-1.539a20.217 20.217 0 012.429-.811 7.459 7.459 0 00-.615 2.967c0 4.135 3.364 7.5 7.5 7.5.434 0 .858-.045 1.273-.117-.262.602-.54 1.166-.798 1.684zm-.475-2.907a6.167 6.167 0 01-6.16-6.16 6.167 6.167 0 016.16-6.16 6.167 6.167 0 016.16 6.16 6.167 6.167 0 01-6.16 6.16z" fill-opacity=".6"/></svg></svg>